<?xml version="1.0" standalone="no"?>
<!DOCTYPE svg PUBLIC "-//W3C//DTD SVG 20010904//EN"
 "http://www.w3.org/TR/2001/REC-SVG-20010904/DTD/svg10.dtd">
<svg version="1.0" xmlns="http://www.w3.org/2000/svg"
 width="300.000000pt" height="300.000000pt" viewBox="0 0 300.000000 300.000000"
 preserveAspectRatio="xMidYMid meet">
<metadata>
Created by potrace 1.14, written by Peter Selinger 2001-2017
</metadata>
<g transform="translate(0.000000,300.000000) scale(0.100000,-0.100000)"
fill="#000000" stroke="none">
<path d="M958 2457 l-488 -282 0 -522 0 -523 50 0 50 0 0 493 1 492 440 253
c276 160 446 252 456 248 8 -4 208 -117 444 -252 l429 -246 0 -494 0 -494 50
0 50 0 0 523 -1 522 -237 137 c-130 75 -347 200 -482 279 -135 78 -252 143
-260 145 -8 2 -234 -124 -502 -279z"/>
<path d="M1465 1933 c-15 -82 -56 -294 -90 -473 l-62 -325 50 -3 c27 -2 51 -2
53 0 2 2 42 204 89 448 47 245 88 457 91 473 6 27 5 27 -49 27 l-54 0 -28
-147z"/>
<path d="M1007 1807 l-238 -131 3 -80 3 -81 235 -128 c129 -71 241 -131 248
-134 9 -4 12 17 12 84 l0 88 -170 85 c-93 46 -170 87 -170 90 1 3 72 39 158
80 86 41 163 78 170 83 8 6 12 38 12 93 0 61 -3 84 -12 83 -7 -1 -120 -60
-251 -132z"/>
<path d="M1640 1854 l0 -85 177 -86 177 -87 -175 -85 -174 -86 -3 -87 c-1 -49
0 -88 4 -88 3 0 118 61 255 136 l250 136 -3 76 -3 76 -244 133 c-134 73 -248
133 -253 133 -4 0 -8 -39 -8 -86z"/>
<path d="M844 1016 c-39 -17 -74 -61 -74 -93 0 -34 26 -80 50 -88 11 -4 18
-10 15 -15 -14 -23 88 -27 139 -6 18 8 41 24 50 37 18 26 21 90 6 119 -23 44
-132 71 -186 46z m69 -23 c-7 -2 -19 -2 -25 0 -7 3 -2 5 12 5 14 0 19 -2 13
-5z m51 -22 c23 -19 20 -77 -4 -101 -30 -30 -93 -30 -123 -1 -15 14 -16 22 -6
51 6 19 19 41 27 48 9 6 11 12 4 12 -6 0 -18 -10 -26 -22 -9 -12 -16 -18 -16
-14 0 5 6 17 14 25 18 20 107 21 130 2z m56 -104 c0 -2 -10 -12 -22 -23 l-23
-19 19 23 c18 21 26 27 26 19z m-143 -53 c-3 -3 -12 -4 -19 -1 -8 3 -5 6 6 6
11 1 17 -2 13 -5z m70 0 c-3 -3 -12 -4 -19 -1 -8 3 -5 6 6 6 11 1 17 -2 13 -5z"/>
<path d="M874 936 c-10 -26 4 -48 28 -44 17 2 23 10 23 28 0 18 -6 26 -23 28
-13 2 -25 -3 -28 -12z"/>
<path d="M830 893 c0 -6 8 -17 18 -24 16 -13 16 -13 2 6 -8 11 -16 22 -17 24
-2 2 -3 0 -3 -6z"/>
<path d="M580 915 c0 -98 1 -105 20 -105 17 0 20 7 20 45 l0 45 45 0 45 0 0
-45 c0 -38 3 -45 20 -45 19 0 20 7 20 105 0 98 -1 105 -20 105 -17 0 -20 -7
-20 -40 l0 -40 -45 0 -45 0 0 40 c0 33 -3 40 -20 40 -19 0 -20 -7 -20 -105z"/>
<path d="M1080 915 c0 -98 1 -105 20 -105 18 0 20 7 21 73 l1 72 25 -72 c33
-97 53 -99 85 -5 l23 67 3 -67 c3 -60 5 -68 22 -68 19 0 20 7 20 106 l0 105
-27 -3 c-23 -3 -29 -12 -52 -75 -14 -40 -28 -73 -32 -73 -3 0 -16 34 -29 75
-22 70 -25 75 -52 75 l-28 0 0 -105z"/>
<path d="M1390 915 l0 -105 60 0 c47 0 60 3 60 15 0 11 -11 15 -40 15 -38 0
-40 2 -40 29 0 27 3 30 38 33 25 2 37 8 37 18 0 10 -12 16 -37 18 -33 3 -38 7
-38 28 0 21 4 24 40 24 29 0 40 4 40 15 0 12 -13 15 -60 15 l-60 0 0 -105z"/>
<path d="M1700 918 c22 -85 30 -104 48 -106 17 -3 23 6 36 51 9 30 16 60 16
65 0 6 4 13 9 16 5 3 17 -26 27 -64 15 -60 21 -70 40 -70 19 0 24 11 43 83 11
45 24 92 27 105 5 17 2 22 -14 22 -16 0 -23 -13 -39 -77 l-19 -77 -20 74 c-16
60 -24 76 -41 78 -18 3 -23 -6 -39 -67 -10 -39 -21 -68 -24 -65 -3 3 -12 33
-20 67 -13 49 -20 63 -37 65 -21 3 -21 2 7 -100z"/>
<path d="M2010 915 l0 -106 63 3 c69 3 81 21 17 26 -37 3 -40 5 -40 33 0 27 2
29 41 29 33 0 40 3 37 18 -2 12 -14 18 -41 20 -31 3 -37 7 -37 27 0 21 5 24
43 27 64 5 50 23 -20 26 l-63 3 0 -106z"/>
<path d="M2210 915 l0 -105 60 0 c47 0 64 4 80 20 24 24 26 53 4 75 -13 12
-14 19 -5 28 16 16 14 53 -5 71 -10 11 -34 16 -75 16 l-59 0 0 -105z m105 50
c0 -15 -8 -21 -32 -23 -30 -3 -33 -1 -33 23 0 24 3 26 33 23 24 -2 32 -8 32
-23z m9 -81 c9 -24 -12 -44 -45 -44 -26 0 -29 4 -29 30 0 27 3 30 34 30 22 0
36 -6 40 -16z"/>
<path d="M1104 672 c10 -17 345 -204 359 -200 7 2 91 48 187 103 l174 100 -93
3 -94 3 -88 -51 c-49 -27 -91 -50 -94 -50 -2 0 -42 23 -89 50 l-85 50 -91 0
c-50 0 -89 -4 -86 -8z"/>
<path d="M805 390 c-4 -6 -8 -23 -11 -38 -2 -15 -7 -39 -10 -54 -3 -16 -1 -28
5 -28 5 0 13 20 17 45 3 25 11 45 16 45 5 0 6 5 2 11 -3 6 0 15 7 20 11 7 11
9 -3 9 -9 0 -20 -5 -23 -10z"/>
<path d="M1105 368 c-4 -18 -9 -41 -11 -50 -4 -12 0 -18 11 -18 9 0 14 4 10 9
-3 6 -1 28 4 50 5 23 5 41 1 41 -5 0 -11 -15 -15 -32z"/>
<path d="M1640 385 c0 -9 -6 -15 -12 -14 -37 4 -64 -24 -52 -55 9 -22 61 -21
68 2 14 51 17 82 7 82 -6 0 -11 -7 -11 -15z m-10 -44 c0 -24 -18 -37 -31 -24
-13 13 -1 43 17 43 8 0 14 -9 14 -19z"/>
<path d="M1956 383 c-16 -57 -17 -83 -4 -83 9 0 14 16 15 50 3 51 -2 64 -11
33z"/>
<path d="M931 363 c-31 -21 -24 -57 12 -61 15 -2 27 1 27 6 0 6 -9 8 -20 5
-11 -3 -20 -1 -20 5 0 6 10 12 22 14 26 3 36 33 15 41 -8 3 -24 -1 -36 -10z
m34 -13 c-3 -5 -13 -10 -21 -10 -8 0 -12 5 -9 10 3 6 13 10 21 10 8 0 12 -4 9
-10z"/>
<path d="M1021 363 c-31 -21 -24 -57 12 -61 15 -2 27 1 27 6 0 6 -9 8 -20 5
-11 -3 -20 -1 -20 5 0 6 10 12 22 14 26 3 36 33 15 41 -8 3 -24 -1 -36 -10z
m34 -13 c-3 -5 -13 -10 -21 -10 -8 0 -12 5 -9 10 3 6 13 10 21 10 8 0 12 -4 9
-10z"/>
<path d="M1285 372 c-25 -5 -35 -20 -35 -51 0 -28 16 -18 22 13 1 11 9 21 17
24 10 3 13 -3 9 -27 -2 -17 -1 -31 3 -31 16 0 27 65 12 73 -5 2 -17 2 -28 -1z"/>
<path d="M1372 373 c-18 -7 -33 -39 -26 -57 6 -17 54 -23 54 -7 0 5 -8 8 -17
7 -12 -1 -18 6 -18 19 0 14 6 20 23 19 12 0 22 3 22 7 0 10 -22 17 -38 12z"/>
<path d="M1462 373 c-18 -7 -33 -39 -26 -57 7 -18 49 -22 59 -6 4 7 -2 9 -19
4 -16 -4 -26 -2 -26 4 0 6 10 12 22 14 13 2 24 10 26 19 3 18 -15 29 -36 22z
m23 -23 c-3 -5 -10 -10 -16 -10 -5 0 -9 5 -9 10 0 6 7 10 16 10 8 0 12 -4 9
-10z"/>
<path d="M1702 373 c-18 -7 -33 -39 -26 -57 7 -18 49 -22 60 -5 4 7 0 9 -14 5
-11 -4 -23 -2 -27 4 -3 5 2 10 12 10 28 0 45 20 32 37 -12 14 -16 15 -37 6z
m23 -23 c-3 -5 -10 -10 -16 -10 -5 0 -9 5 -9 10 0 6 7 10 16 10 8 0 12 -4 9
-10z"/>
<path d="M1871 363 c-31 -21 -24 -57 12 -61 15 -2 27 1 27 6 0 6 -9 8 -20 5
-11 -3 -20 -1 -20 5 0 6 10 12 22 14 26 3 36 33 15 41 -8 3 -24 -1 -36 -10z
m29 -13 c0 -5 -7 -10 -16 -10 -8 0 -12 5 -9 10 3 6 10 10 16 10 5 0 9 -4 9
-10z"/>
<path d="M2017 369 c-10 -6 -17 -22 -17 -39 0 -25 4 -30 23 -30 27 0 47 17 47
42 0 23 -31 39 -53 27z m33 -28 c0 -24 -18 -37 -31 -24 -13 13 -1 43 17 43 8
0 14 -9 14 -19z"/>
<path d="M2211 363 c-31 -21 -24 -57 12 -61 15 -2 27 1 27 6 0 6 -9 8 -20 5
-11 -3 -20 -1 -20 5 0 6 10 12 22 14 26 3 36 33 15 41 -8 3 -24 -1 -36 -10z
m34 -13 c-3 -5 -13 -10 -21 -10 -8 0 -12 5 -9 10 3 6 13 10 21 10 8 0 12 -4 9
-10z"/>
<path d="M856 354 c-3 -9 -6 -25 -5 -37 1 -19 2 -19 13 6 7 16 19 33 27 38 11
7 9 9 -7 9 -12 0 -25 -7 -28 -16z"/>
<path d="M1154 346 c-8 -34 2 -46 37 -46 22 0 29 5 29 19 0 11 3 26 6 35 5 13
-1 16 -30 16 -29 0 -37 -4 -42 -24z m49 8 c8 -9 -11 -44 -23 -44 -6 0 -10 8
-10 18 0 27 18 41 33 26z"/>
<path d="M1770 358 c0 -25 12 -58 21 -58 13 0 41 48 37 62 -3 8 -11 1 -21 -17
l-16 -30 -1 28 c0 15 -4 27 -10 27 -5 0 -10 -6 -10 -12z"/>
<path d="M2093 320 c-6 -27 -6 -50 -2 -50 5 0 9 6 9 14 0 8 12 16 26 18 54 6
59 68 6 68 -27 0 -30 -4 -39 -50z m57 21 c0 -24 -18 -37 -31 -24 -13 13 -1 43
17 43 8 0 14 -9 14 -19z"/>
<path d="M2290 358 c0 -7 -3 -23 -6 -35 -4 -14 -2 -23 5 -23 6 0 11 8 11 17 0
9 7 25 17 35 15 17 15 18 -5 18 -12 0 -22 -6 -22 -12z"/>
</g>
</svg>
